<?xml version="1.0" encoding="UTF-8"?><svg xmlns="http://www.w3.org/2000/svg" xmlns:xlink="http://www.w3.org/1999/xlink" stroke-dasharray="none" shape-rendering="auto" font-family="'Dialog'" width="837" text-rendering="auto" fill-opacity="1" contentScriptType="text/ecmascript" color-interpolation="auto" color-rendering="auto" preserveAspectRatio="xMidYMid meet" font-size="12" fill="black" stroke="black" image-rendering="auto" stroke-miterlimit="10" zoomAndPan="magnify" version="1.0" stroke-linecap="square" stroke-linejoin="miter" contentStyleType="text/css" font-style="normal" height="630" stroke-width="1" stroke-dashoffset="0" font-weight="normal" stroke-opacity="1">
<!--Generated by the Batik Graphics2D SVG Generator-->
<defs id="genericDefs"/>
<g>
<defs id="defs1">
<clipPath clipPathUnits="userSpaceOnUse" id="clipPath1">
<path d="M24 9 L813 9 L813 607 L24 607 L24 9 Z"/>
</clipPath>
<clipPath clipPathUnits="userSpaceOnUse" id="clipPath2">
<path d="M-1 -1 L838 -1 L838 631 L-1 631 L-1 -1 Z"/>
</clipPath>
<clipPath clipPathUnits="userSpaceOnUse" id="clipPath3">
<path d="M24 605 L813 605 L813 631 L24 631 L24 605 Z"/>
</clipPath>
</defs>
<g font-size="15" fill="white" text-rendering="geometricPrecision" stroke-linejoin="round" stroke="white" stroke-width="0" stroke-miterlimit="0">
<rect x="25" y="10" clip-path="url(#clipPath1)" width="787" height="596" stroke="none"/>
</g>
<g font-size="15" stroke-linecap="butt" fill="rgb(204,204,204)" text-rendering="geometricPrecision" stroke-dasharray="3,3" stroke="rgb(204,204,204)">
<line clip-path="url(#clipPath1)" fill="none" x1="25" x2="812" y1="606" y2="606"/>
<line clip-path="url(#clipPath1)" fill="none" x1="25" x2="812" y1="512" y2="512"/>
<line clip-path="url(#clipPath1)" fill="none" x1="25" x2="812" y1="418" y2="418"/>
<line clip-path="url(#clipPath1)" fill="none" x1="25" x2="812" y1="324" y2="324"/>
<line clip-path="url(#clipPath1)" fill="none" x1="25" x2="812" y1="230" y2="230"/>
<line clip-path="url(#clipPath1)" fill="none" x1="25" x2="812" y1="136" y2="136"/>
<line clip-path="url(#clipPath1)" fill="none" x1="25" x2="812" y1="42" y2="42"/>
<rect x="737" y="604" clip-path="url(#clipPath1)" fill="rgb(255,165,0)" width="37" height="1" stroke="none"/>
<rect x="682" y="64" clip-path="url(#clipPath1)" fill="rgb(0,100,0)" width="37" height="541" stroke="none"/>
<rect x="682" y="64" clip-path="url(#clipPath1)" fill="none" width="37" stroke-dasharray="none" height="541"/>
<rect x="626" y="606" clip-path="url(#clipPath1)" fill="rgb(238,0,0)" width="37" stroke-dasharray="none" height="1" stroke="none"/>
<rect x="571" y="439" clip-path="url(#clipPath1)" fill="rgb(0,0,139)" width="37" stroke-dasharray="none" height="166" stroke="none"/>
<rect x="571" y="439" clip-path="url(#clipPath1)" fill="none" width="37" stroke-dasharray="none" height="166"/>
<rect x="483" y="604" clip-path="url(#clipPath1)" fill="rgb(255,165,0)" width="37" stroke-dasharray="none" height="1" stroke="none"/>
<rect x="427" y="265" clip-path="url(#clipPath1)" fill="rgb(0,100,0)" width="37" stroke-dasharray="none" height="340" stroke="none"/>
<rect x="427" y="265" clip-path="url(#clipPath1)" fill="none" width="37" stroke-dasharray="none" height="340"/>
<rect x="372" y="606" clip-path="url(#clipPath1)" fill="rgb(238,0,0)" width="37" stroke-dasharray="none" height="1" stroke="none"/>
<rect x="316" y="527" clip-path="url(#clipPath1)" fill="rgb(0,0,139)" width="37" stroke-dasharray="none" height="78" stroke="none"/>
<rect x="316" y="527" clip-path="url(#clipPath1)" fill="none" width="37" stroke-dasharray="none" height="78"/>
<rect x="228" y="603" clip-path="url(#clipPath1)" fill="rgb(255,165,0)" width="37" stroke-dasharray="none" height="2" stroke="none"/>
<rect x="173" y="265" clip-path="url(#clipPath1)" fill="rgb(0,100,0)" width="37" stroke-dasharray="none" height="340" stroke="none"/>
<rect x="173" y="265" clip-path="url(#clipPath1)" fill="none" width="37" stroke-dasharray="none" height="340"/>
<rect x="117" y="363" clip-path="url(#clipPath1)" fill="rgb(238,0,0)" width="37" stroke-dasharray="none" height="242" stroke="none"/>
<rect x="117" y="363" clip-path="url(#clipPath1)" fill="none" width="37" stroke-dasharray="none" height="242"/>
<rect x="62" y="526" clip-path="url(#clipPath1)" fill="rgb(0,0,139)" width="37" stroke-dasharray="none" height="79" stroke="none"/>
<rect x="62" y="526" clip-path="url(#clipPath1)" fill="none" width="37" stroke-dasharray="none" height="79"/>
<rect x="25" y="10" clip-path="url(#clipPath2)" fill="none" width="787" stroke-dasharray="none" height="596" stroke="black"/>
<line clip-path="url(#clipPath2)" fill="none" x1="26" x2="811" y1="606" y2="606" stroke-dasharray="none"/>
</g>
<g text-rendering="geometricPrecision" font-size="13" stroke-linecap="butt">
<line clip-path="url(#clipPath2)" fill="none" x1="23" x2="23" y1="10" y2="606"/>
<line clip-path="url(#clipPath2)" fill="none" x1="814" x2="814" y1="10" y2="606"/>
<line clip-path="url(#clipPath2)" fill="none" x1="19" x2="23" y1="606" y2="606"/>
<line clip-path="url(#clipPath2)" fill="none" x1="818" x2="814" y1="606" y2="606"/>
<text font-size="11" x="13" y="611" clip-path="url(#clipPath2)" stroke="none" xml:space="preserve">0</text>
<text font-size="11" x="821" y="611" clip-path="url(#clipPath2)" stroke="none" xml:space="preserve">0</text>
<line clip-path="url(#clipPath2)" fill="none" x1="21" x2="23" y1="587" y2="587"/>
<line clip-path="url(#clipPath2)" fill="none" x1="816" x2="814" y1="587" y2="587"/>
<line clip-path="url(#clipPath2)" fill="none" x1="21" x2="23" y1="568" y2="568"/>
<line clip-path="url(#clipPath2)" fill="none" x1="816" x2="814" y1="568" y2="568"/>
<line clip-path="url(#clipPath2)" fill="none" x1="21" x2="23" y1="549" y2="549"/>
<line clip-path="url(#clipPath2)" fill="none" x1="816" x2="814" y1="549" y2="549"/>
<line clip-path="url(#clipPath2)" fill="none" x1="21" x2="23" y1="530" y2="530"/>
<line clip-path="url(#clipPath2)" fill="none" x1="816" x2="814" y1="530" y2="530"/>
<line clip-path="url(#clipPath2)" fill="none" x1="19" x2="23" y1="512" y2="512"/>
<line clip-path="url(#clipPath2)" fill="none" x1="818" x2="814" y1="512" y2="512"/>
<text font-size="11" x="3" y="517" clip-path="url(#clipPath2)" stroke="none" xml:space="preserve">1.0</text>
<text font-size="11" x="821" y="517" clip-path="url(#clipPath2)" stroke="none" xml:space="preserve">1.0</text>
<line clip-path="url(#clipPath2)" fill="none" x1="21" x2="23" y1="493" y2="493"/>
<line clip-path="url(#clipPath2)" fill="none" x1="816" x2="814" y1="493" y2="493"/>
<line clip-path="url(#clipPath2)" fill="none" x1="21" x2="23" y1="474" y2="474"/>
<line clip-path="url(#clipPath2)" fill="none" x1="816" x2="814" y1="474" y2="474"/>
<line clip-path="url(#clipPath2)" fill="none" x1="21" x2="23" y1="455" y2="455"/>
<line clip-path="url(#clipPath2)" fill="none" x1="816" x2="814" y1="455" y2="455"/>
<line clip-path="url(#clipPath2)" fill="none" x1="21" x2="23" y1="436" y2="436"/>
<line clip-path="url(#clipPath2)" fill="none" x1="816" x2="814" y1="436" y2="436"/>
<line clip-path="url(#clipPath2)" fill="none" x1="19" x2="23" y1="418" y2="418"/>
<line clip-path="url(#clipPath2)" fill="none" x1="818" x2="814" y1="418" y2="418"/>
<text font-size="11" x="3" y="423" clip-path="url(#clipPath2)" stroke="none" xml:space="preserve">2.0</text>
<text font-size="11" x="821" y="423" clip-path="url(#clipPath2)" stroke="none" xml:space="preserve">2.0</text>
<line clip-path="url(#clipPath2)" fill="none" x1="21" x2="23" y1="399" y2="399"/>
<line clip-path="url(#clipPath2)" fill="none" x1="816" x2="814" y1="399" y2="399"/>
<line clip-path="url(#clipPath2)" fill="none" x1="21" x2="23" y1="380" y2="380"/>
<line clip-path="url(#clipPath2)" fill="none" x1="816" x2="814" y1="380" y2="380"/>
<line clip-path="url(#clipPath2)" fill="none" x1="21" x2="23" y1="361" y2="361"/>
<line clip-path="url(#clipPath2)" fill="none" x1="816" x2="814" y1="361" y2="361"/>
<line clip-path="url(#clipPath2)" fill="none" x1="21" x2="23" y1="342" y2="342"/>
<line clip-path="url(#clipPath2)" fill="none" x1="816" x2="814" y1="342" y2="342"/>
<line clip-path="url(#clipPath2)" fill="none" x1="19" x2="23" y1="324" y2="324"/>
<line clip-path="url(#clipPath2)" fill="none" x1="818" x2="814" y1="324" y2="324"/>
<text font-size="11" x="3" y="329" clip-path="url(#clipPath2)" stroke="none" xml:space="preserve">3.0</text>
<text font-size="11" x="821" y="329" clip-path="url(#clipPath2)" stroke="none" xml:space="preserve">3.0</text>
<line clip-path="url(#clipPath2)" fill="none" x1="21" x2="23" y1="305" y2="305"/>
<line clip-path="url(#clipPath2)" fill="none" x1="816" x2="814" y1="305" y2="305"/>
<line clip-path="url(#clipPath2)" fill="none" x1="21" x2="23" y1="286" y2="286"/>
<line clip-path="url(#clipPath2)" fill="none" x1="816" x2="814" y1="286" y2="286"/>
<line clip-path="url(#clipPath2)" fill="none" x1="21" x2="23" y1="267" y2="267"/>
<line clip-path="url(#clipPath2)" fill="none" x1="816" x2="814" y1="267" y2="267"/>
<line clip-path="url(#clipPath2)" fill="none" x1="21" x2="23" y1="248" y2="248"/>
<line clip-path="url(#clipPath2)" fill="none" x1="816" x2="814" y1="248" y2="248"/>
<line clip-path="url(#clipPath2)" fill="none" x1="19" x2="23" y1="230" y2="230"/>
<line clip-path="url(#clipPath2)" fill="none" x1="818" x2="814" y1="230" y2="230"/>
<text font-size="11" x="3" y="235" clip-path="url(#clipPath2)" stroke="none" xml:space="preserve">4.0</text>
<text font-size="11" x="821" y="235" clip-path="url(#clipPath2)" stroke="none" xml:space="preserve">4.0</text>
<line clip-path="url(#clipPath2)" fill="none" x1="21" x2="23" y1="211" y2="211"/>
<line clip-path="url(#clipPath2)" fill="none" x1="816" x2="814" y1="211" y2="211"/>
<line clip-path="url(#clipPath2)" fill="none" x1="21" x2="23" y1="192" y2="192"/>
<line clip-path="url(#clipPath2)" fill="none" x1="816" x2="814" y1="192" y2="192"/>
<line clip-path="url(#clipPath2)" fill="none" x1="21" x2="23" y1="173" y2="173"/>
<line clip-path="url(#clipPath2)" fill="none" x1="816" x2="814" y1="173" y2="173"/>
<line clip-path="url(#clipPath2)" fill="none" x1="21" x2="23" y1="154" y2="154"/>
<line clip-path="url(#clipPath2)" fill="none" x1="816" x2="814" y1="154" y2="154"/>
<line clip-path="url(#clipPath2)" fill="none" x1="19" x2="23" y1="136" y2="136"/>
<line clip-path="url(#clipPath2)" fill="none" x1="818" x2="814" y1="136" y2="136"/>
<text font-size="11" x="3" y="141" clip-path="url(#clipPath2)" stroke="none" xml:space="preserve">5.0</text>
<text font-size="11" x="821" y="141" clip-path="url(#clipPath2)" stroke="none" xml:space="preserve">5.0</text>
<line clip-path="url(#clipPath2)" fill="none" x1="21" x2="23" y1="117" y2="117"/>
<line clip-path="url(#clipPath2)" fill="none" x1="816" x2="814" y1="117" y2="117"/>
<line clip-path="url(#clipPath2)" fill="none" x1="21" x2="23" y1="98" y2="98"/>
<line clip-path="url(#clipPath2)" fill="none" x1="816" x2="814" y1="98" y2="98"/>
<line clip-path="url(#clipPath2)" fill="none" x1="21" x2="23" y1="79" y2="79"/>
<line clip-path="url(#clipPath2)" fill="none" x1="816" x2="814" y1="79" y2="79"/>
<line clip-path="url(#clipPath2)" fill="none" x1="21" x2="23" y1="60" y2="60"/>
<line clip-path="url(#clipPath2)" fill="none" x1="816" x2="814" y1="60" y2="60"/>
<line clip-path="url(#clipPath2)" fill="none" x1="19" x2="23" y1="42" y2="42"/>
<line clip-path="url(#clipPath2)" fill="none" x1="818" x2="814" y1="42" y2="42"/>
<text font-size="11" x="3" y="47" clip-path="url(#clipPath2)" stroke="none" xml:space="preserve">6.0</text>
<text font-size="11" x="821" y="47" clip-path="url(#clipPath2)" stroke="none" xml:space="preserve">6.0</text>
<line clip-path="url(#clipPath2)" fill="none" x1="21" x2="23" y1="23" y2="23"/>
<line clip-path="url(#clipPath2)" fill="none" x1="816" x2="814" y1="23" y2="23"/>
<line clip-path="url(#clipPath3)" fill="none" x1="62" x2="265" y1="610" y2="610"/>
<line clip-path="url(#clipPath3)" fill="none" x1="316" x2="520" y1="610" y2="610"/>
<line clip-path="url(#clipPath3)" fill="none" x1="571" x2="774" y1="610" y2="610"/>
<text font-size="11" x="62" y="622" clip-path="url(#clipPath3)" stroke="none" xml:space="preserve">MM1.sink2</text>
<text font-size="11" x="316" y="622" clip-path="url(#clipPath3)" stroke="none" xml:space="preserve">MM1.sink3</text>
<text font-size="11" x="571" y="622" clip-path="url(#clipPath3)" stroke="none" xml:space="preserve">MM1.splitter</text>
</g>
</g>
</svg>
